# xmcd
#
# Track frame offsets: 
#        150
#        14917
#        34124
#        54575
#
# Disc length: 988 seconds
#
# Revision: 0
# Processed by: cddbd v1.5.2PL0 Copyright (c) Steve Scherf et al.
# Submitted via: ExactAudioCopy v0.95b4
#
DISCID=3103da04
DTITLE=Shipwreck - Walk in the Woods EP
DYEAR=2006
DGENRE=Indie
TTITLE0=Walk in the Woods
TTITLE1=Hi-Fi
TTITLE2=A Kiss in the Dark
TTITLE3=Frost
EXTD=
EXTT0=
EXTT1=
EXTT2=
EXTT3=
PLAYORDER=
